<?xml version="1.0" ?><svg id="Layer_1" style="enable-background:new 0 0 512 512;" version="1.1" viewBox="0 0 512 512" xml:space="preserve" xmlns="http://www.w3.org/2000/svg" xmlns:xlink="http://www.w3.org/1999/xlink"><style type="text/css">
	.st0{fill:#2B79C2;}
	.st1{fill:#3B4652;}
</style><g><path class="st0" d="M449.5,50.4H62.5c-14,0-25.4,11.4-25.4,25.4V276H475V75.8C475,61.8,463.6,50.4,449.5,50.4z M127.5,174.5   c-1.8,0-3.6-0.7-4.9-2c-2.7-2.7-2.7-7.2,0-9.9l63.3-63.3c2.7-2.7,7.2-2.7,9.9,0c2.7,2.7,2.7,7.2,0,9.9l-63.3,63.3   C131.1,173.8,129.3,174.5,127.5,174.5z M184.7,244.8c-1.8,0-3.6-0.7-5-2c-2.7-2.7-2.7-7.2,0-9.9L319.6,93c2.7-2.7,7.2-2.7,9.9,0   c2.7,2.7,2.7,7.2,0,9.9L189.6,242.8C188.3,244.1,186.5,244.8,184.7,244.8z M389.5,172.8L324,238.3c-1.4,1.4-3.2,2-5,2   s-3.6-0.7-4.9-2c-2.7-2.7-2.7-7.2,0-9.9l65.5-65.5c2.7-2.7,7.2-2.7,9.9,0C392.2,165.7,392.2,170.1,389.5,172.8z"/><path class="st1" d="M301.9,369.6h-91.7c-6.2,28.8-26.3,92.1-83.8,92.1h259.3C328.2,461.6,308,398.4,301.9,369.6z"/><path class="st1" d="M37,330.1c0,6.5,2.4,12.4,6.5,16.9c3,3.3,6.8,5.9,11.1,7.3c2.5,0.8,5.1,1.2,7.8,1.2h387.1   c2.7,0,5.4-0.4,7.8-1.2c4.3-1.4,8.2-3.9,11.1-7.3c4-4.5,6.5-10.4,6.5-16.9V290H37V330.1z M256.5,309.6c7.3,0,13.2,5.9,13.2,13.2   c0,7.3-5.9,13.2-13.2,13.2c-7.3,0-13.2-5.9-13.2-13.2C243.3,315.5,249.2,309.6,256.5,309.6z"/></g></svg>